<svg version="1.2" baseProfile="tiny-ps" xmlns="http://www.w3.org/2000/svg" viewBox="0 0 359 213" width="359" height="213">
	<title>logo-svg</title>
	<style>
		tspan { white-space:pre }
		.shp0 { fill: #ffffff } 
		.shp1 { fill: #e92d20 } 
	</style>
	<g id="Capa_2">
		<g id="Capa_1-2">
			<path id="text10" fill-rule="evenodd" class="shp0" d="M40.24 52.11L58.96 9.56L75.09 9.56L75.09 12.3C68.9 12.51 67.96 14.46 67.96 23.17L67.96 51.39C67.96 60.9 69.04 62.05 75.81 62.26L75.81 65L52.48 65L52.48 62.26C59.25 62.05 60.4 60.82 60.4 51.9L60.4 18.49L59.68 18.49L38.66 65.72L37.07 65.72L16.41 18.49L16.12 18.49L16.12 51.39C16.12 60.9 17.2 62.05 23.97 62.26L23.97 65L3.88 65L3.88 62.26C10.65 62.05 11.8 60.82 11.8 51.9L11.8 22.66C11.8 14.53 10.79 12.58 4.6 12.3L4.6 9.56L21.81 9.56L39.95 52.11L40.24 52.11ZM114.26 44.91L95.03 44.91C91.72 52.83 90.57 56.79 90.57 58.74C90.57 61.4 92.22 62.26 96.18 62.26L96.18 65L78.69 65L78.69 62.26C83.08 61.76 84.88 60.54 86.54 56.43L105.26 9.56L108.35 9.56L124.7 50.17C129.09 60.97 130.67 62.19 135.64 62.19L135.64 65L112.17 65L112.17 62.19C117.28 62.19 118.86 61.33 118.86 59.1C118.86 57.22 118.5 56 117.21 52.69L114.26 44.91ZM96.47 41.31L112.89 41.31L104.9 20.07L96.47 41.31ZM167.61 38.14L183.52 57.3C186.11 60.46 189.14 61.62 193.38 62.26L193.38 65L179.49 65L161.85 42.39C159.33 39.08 157.89 38.72 153.42 38.72L153.42 53.7C153.42 60.82 154.65 62.26 163.36 62.26L163.36 65L137.94 65L137.94 62.26C144.71 62.05 145.86 60.82 145.86 54.06L145.86 20.5C145.86 13.81 144.86 12.58 138.66 12.3L138.66 9.56L161.27 9.56C174.45 9.56 182.08 14.74 182.08 23.46C182.08 31.09 177.69 36.42 167.61 38.14ZM153.42 35.12L158.54 35.12C168.04 35.12 172.72 31.81 172.72 23.82C172.72 16.11 169.12 12.94 161.27 12.94L154.65 12.94C153.86 12.94 153.42 13.45 153.42 14.17L153.42 35.12ZM195.62 48.08L198.28 48.08C199.65 56.79 205.98 62.05 214.62 62.05C221.68 62.05 226.14 58.38 226.14 52.69C226.14 47.79 223.26 44.98 213.54 40.74C201.59 35.48 197.92 31.52 197.92 24.1C197.92 15.18 204.62 8.84 214.05 8.84C218.22 8.84 221.75 10.14 225.5 13.09L227.37 9.85L229.02 9.85L229.82 24.18L227.15 24.18C224.85 16.33 220.38 12.51 214.26 12.51C208.43 12.51 204.69 15.68 204.69 20.5C204.69 25.04 207.5 27.78 215.7 31.45C229.96 37.86 233.99 41.82 233.99 49.38C233.99 59.02 226 65.72 214.41 65.72C208.94 65.72 204.83 64.28 200.37 60.68L198.35 64.21L196.7 64.21L195.62 48.08ZM301.89 37.71C301.89 53.34 288.64 65.72 271.94 65.72C255.23 65.72 241.98 53.34 241.98 37.71C241.98 21.44 255.09 8.84 271.94 8.84C288.78 8.84 301.89 21.44 301.89 37.71ZM292.53 37.93C292.53 22.52 284.61 12.8 271.94 12.8C259.26 12.8 251.34 22.52 251.34 37.93C251.34 52.54 259.26 61.76 271.94 61.76C284.54 61.76 292.53 52.54 292.53 37.93ZM354.81 65L308.3 65L308.3 62.26C315.06 62.05 316.22 60.82 316.22 54.06L316.22 20.5C316.22 13.81 315.21 12.58 309.02 12.3L309.02 9.56L330.9 9.56L330.9 12.3C324.71 12.51 323.78 13.74 323.78 21.01L323.78 52.04C323.78 60.1 326.66 61.76 336.59 61.76C347.61 61.76 351.06 59.74 353.15 50.82L355.89 50.82L354.81 65Z" />
			<path id="rect12" class="shp1" d="M1.5 70.78L357.5 70.78L357.5 175.78L1.5 175.78L1.5 70.78Z" />
			<path id="GROUP" fill-rule="evenodd" class="shp0" d="M41.94 130.74L41.94 127.49L69.13 127.49L69.13 130.74L60.42 132.77L60.42 152.83C57.43 154.18 53.58 155.24 48.89 156C44.2 156.76 39.89 157.14 35.96 157.14C25.69 157.14 17.77 154.12 12.2 148.08C6.63 142.04 3.84 133.77 3.84 123.26C3.84 112.76 6.57 104.37 12.02 98.1C17.47 91.76 25.19 88.59 35.16 88.59C39.21 88.59 43.41 89.15 47.75 90.26C52.09 91.32 55.67 93.17 58.48 95.81L58.48 110.68L53.91 110.68L49.6 96.07C47.01 93.32 42.14 91.94 34.99 91.94C27.83 91.94 22.55 94.61 19.15 99.94C15.74 105.28 14.04 112.82 14.04 122.56C14.04 143.27 21.29 153.62 35.78 153.62C40.35 153.62 45.49 152.92 51.18 151.51L51.18 132.77L41.94 130.74ZM139.27 152.74L139.27 156L121.49 156L99.76 126.61L94.83 126.61L94.83 150.72L103.8 152.74L103.8 156L77.05 156L77.05 152.74L85.59 150.72L85.59 95.28L77.05 93.26L77.05 90L103.54 90C112.87 90 119.55 91.41 123.6 94.22C127.65 97.04 129.68 101.56 129.68 107.78C129.68 113.99 127.86 118.63 124.22 121.68C120.58 124.67 115.8 126.17 109.88 126.17L129.68 150.81L139.27 152.74ZM104.68 93.52L94.83 93.52L94.83 123.18L104.68 123.18C109.67 123.18 113.36 122.01 115.77 119.66C118.24 117.31 119.47 113.56 119.47 108.39C119.47 103.17 118.27 99.39 115.86 97.04C113.45 94.69 109.73 93.52 104.68 93.52ZM146.92 123.09C146.92 112.47 149.85 104.05 155.72 97.83C161.59 91.56 169.13 88.42 178.34 88.42C187.61 88.42 195.12 91.62 200.87 98.01C206.68 104.4 209.58 112.79 209.58 123.18C209.58 133.56 206.71 141.92 200.96 148.26C195.21 154.53 187.61 157.67 178.16 157.67C168.72 157.67 161.15 154.56 155.46 148.34C149.77 142.07 146.92 133.65 146.92 123.09ZM199.55 123C199.55 112.73 197.7 104.99 194 99.77C190.37 94.55 185.09 91.94 178.16 91.94C171.3 91.94 166.08 94.61 162.5 99.94C158.92 105.28 157.13 112.97 157.13 123C157.13 133.03 158.86 140.75 162.32 146.14C165.84 151.48 171.03 154.15 177.9 154.15C184.77 154.15 190.08 151.51 193.83 146.23C197.64 140.95 199.55 133.21 199.55 123ZM265.99 93.17L265.99 90L287.9 90L287.9 93.17L279.63 95.37L279.63 130.66C279.63 148.43 271.12 157.32 254.11 157.32C245.42 157.32 239.06 155 235.01 150.37C230.96 145.68 228.94 138.72 228.94 129.51L228.94 95.37L220.14 93.26L220.14 90L246.89 90L246.89 93.26L238.18 95.28L238.18 131.18C238.18 138.81 239.68 144.41 242.67 147.99C245.66 151.51 250.12 153.27 256.04 153.27C268.54 153.27 274.79 145.59 274.79 130.22L274.79 95.37L265.99 93.17ZM301.1 93.26L301.1 90L327.59 90C336.92 90 343.6 91.5 347.65 94.49C351.7 97.42 353.72 102.06 353.72 108.39C353.72 116.08 351.11 121.27 345.89 123.97C341.26 126.32 334.92 127.49 326.88 127.49L318.88 127.49L318.88 150.72L327.85 152.74L327.85 156L301.1 156L301.1 152.74L309.64 150.72L309.64 95.28L301.1 93.26ZM318.88 93.52L318.88 123.97L328.73 123.97C333.72 123.97 337.41 122.74 339.82 120.27C342.29 117.81 343.52 113.97 343.52 108.74C343.52 103.52 342.29 99.68 339.82 97.22C337.41 94.75 333.72 93.52 328.73 93.52L318.88 93.52Z" />
			<path id="tspan28876" fill-rule="evenodd" class="shp0" d="M83.7 193.25L81.45 193.25L81.45 198.07C81.45 200.55 81.87 201.05 84.9 201.05L84.9 202L76.07 202L76.07 201.05C78.42 200.97 78.82 200.55 78.82 198.2L78.82 186.55C78.82 184.22 78.47 183.8 76.32 183.7L76.32 182.75L84.17 182.75C88.75 182.75 91.4 184.55 91.4 187.57C91.4 191.07 89.27 193.25 83.7 193.25ZM81.45 192L83.22 192C86.52 192 88.15 190.8 88.15 187.88C88.15 185.07 86.9 183.93 84.17 183.93L81.87 183.93C81.6 183.93 81.45 184.1 81.45 184.35L81.45 192ZM103.55 192.68L109.07 199.32C109.97 200.43 111.02 200.82 112.5 201.05L112.5 202L107.67 202L101.55 194.15C100.67 193 100.17 192.88 98.62 192.88L98.62 198.07C98.62 200.55 99.05 201.05 102.07 201.05L102.07 202L93.25 202L93.25 201.05C95.6 200.97 96 200.55 96 198.2L96 186.55C96 184.22 95.65 183.8 93.5 183.7L93.5 182.75L101.35 182.75C105.92 182.75 108.57 184.55 108.57 187.57C108.57 190.22 107.05 192.07 103.55 192.68ZM98.62 191.63L100.4 191.63C103.7 191.63 105.32 190.47 105.32 187.7C105.32 185.03 104.07 183.93 101.35 183.93L99.05 183.93C98.77 183.93 98.62 184.1 98.62 184.35L98.62 191.63ZM133.57 192.53C133.57 197.95 128.97 202.25 123.17 202.25C117.37 202.25 112.77 197.95 112.77 192.53C112.77 186.88 117.32 182.5 123.17 182.5C129.02 182.5 133.57 186.88 133.57 192.53ZM130.32 192.6C130.32 187.25 127.57 183.88 123.17 183.88C118.77 183.88 116.02 187.25 116.02 192.6C116.02 197.68 118.77 200.88 123.17 200.88C127.55 200.88 130.32 197.68 130.32 192.6ZM143.42 193.25L141.17 193.25L141.17 198.07C141.17 200.55 141.6 201.05 144.62 201.05L144.62 202L135.8 202L135.8 201.05C138.15 200.97 138.55 200.55 138.55 198.2L138.55 186.55C138.55 184.22 138.2 183.8 136.05 183.7L136.05 182.75L143.9 182.75C148.47 182.75 151.12 184.55 151.12 187.57C151.12 191.07 149 193.25 143.42 193.25ZM141.17 192L142.95 192C146.25 192 147.87 190.8 147.87 187.88C147.87 185.07 146.62 183.93 143.9 183.93L141.6 183.93C141.32 183.93 141.17 184.1 141.17 184.35L141.17 192ZM158.35 197.28C158.35 200.57 158.72 200.97 161.07 201.05L161.07 202L152.97 202L152.97 201.05C155.32 200.97 155.72 200.55 155.72 197.45L155.72 187.3C155.72 184.47 155.37 183.8 153.22 183.7L153.22 182.75L160.82 182.75L160.82 183.7C158.67 183.78 158.35 184.45 158.35 187.47L158.35 197.28ZM168.72 191.43C172.32 191.43 173.45 190.57 173.45 188.55L174.32 188.55L174.32 195.38L173.45 195.38C173.45 193.38 172.47 192.45 168.72 192.43L168.72 198.07C168.72 200.25 169.72 200.93 172.87 200.93C176.4 200.93 177.65 200.03 178.3 197.07L179.25 197.07L178.87 202L163.35 202L163.35 201.05C165.7 200.97 166.1 200.55 166.1 198.2L166.1 186.55C166.1 184.22 165.75 183.8 163.6 183.7L163.6 182.75L178.05 182.75L178.27 187.15L177.4 187.15C177 184.5 175.72 183.82 172.32 183.82L169.15 183.82C168.87 183.82 168.72 184 168.72 184.25L168.72 191.43ZM181.32 202L181.32 201.05C183.87 200.97 184.32 200.57 184.32 198.2L184.32 186.55C184.32 184.22 183.97 183.8 181.82 183.7L181.82 182.75L190.6 182.75C196.62 182.75 201 186.95 201 192.7C201 198.18 196.92 202 191.1 202L181.32 202ZM187.37 183.97C187.1 183.97 186.95 184.15 186.95 184.4L186.95 197.93C186.95 199.85 188.15 200.78 190.67 200.78C195.2 200.78 197.75 198 197.75 192.75C197.75 187.22 195 183.97 190.55 183.97L187.37 183.97ZM213.97 195.03L207.3 195.03C206.15 197.78 205.75 199.15 205.75 199.82C205.75 200.75 206.32 201.05 207.7 201.05L207.7 202L201.62 202L201.62 201.05C203.15 200.88 203.77 200.45 204.35 199.03L210.85 182.75L211.92 182.75L217.6 196.85C219.12 200.6 219.67 201.03 221.4 201.03L221.4 202L213.25 202L213.25 201.03C215.02 201.03 215.57 200.72 215.57 199.95C215.57 199.3 215.45 198.88 215 197.72L213.97 195.03ZM207.8 193.78L213.5 193.78L210.72 186.4L207.8 193.78ZM222.02 202L222.02 201.05C224.57 200.97 225.02 200.57 225.02 198.2L225.02 186.55C225.02 184.22 224.67 183.8 222.52 183.7L222.52 182.75L231.3 182.75C237.32 182.75 241.7 186.95 241.7 192.7C241.7 198.18 237.62 202 231.8 202L222.02 202ZM228.07 183.97C227.8 183.97 227.65 184.15 227.65 184.4L227.65 197.93C227.65 199.85 228.85 200.78 231.37 200.78C235.9 200.78 238.45 198 238.45 192.75C238.45 187.22 235.7 183.97 231.25 183.97L228.07 183.97ZM249.35 191.43C252.95 191.43 254.07 190.57 254.07 188.55L254.95 188.55L254.95 195.38L254.07 195.38C254.07 193.38 253.1 192.45 249.35 192.43L249.35 198.07C249.35 200.25 250.35 200.93 253.5 200.93C257.02 200.93 258.27 200.03 258.92 197.07L259.87 197.07L259.5 202L243.97 202L243.97 201.05C246.32 200.97 246.72 200.55 246.72 198.2L246.72 186.55C246.72 184.22 246.37 183.8 244.22 183.7L244.22 182.75L258.67 182.75L258.9 187.15L258.02 187.15C257.62 184.5 256.35 183.82 252.95 183.82L249.77 183.82C249.5 183.82 249.35 184 249.35 184.25L249.35 191.43ZM262.45 196.13L263.37 196.13C263.85 199.15 266.05 200.97 269.05 200.97C271.5 200.97 273.05 199.7 273.05 197.72C273.05 196.03 272.05 195.05 268.67 193.57C264.52 191.75 263.25 190.38 263.25 187.8C263.25 184.7 265.57 182.5 268.85 182.5C270.3 182.5 271.52 182.95 272.82 183.97L273.47 182.85L274.05 182.85L274.32 187.82L273.4 187.82C272.6 185.1 271.05 183.78 268.92 183.78C266.9 183.78 265.6 184.88 265.6 186.55C265.6 188.13 266.57 189.07 269.42 190.35C274.37 192.57 275.77 193.95 275.77 196.57C275.77 199.93 273 202.25 268.97 202.25C267.07 202.25 265.65 201.75 264.1 200.5L263.4 201.72L262.82 201.72L262.45 196.13Z" />
		</g>
	</g>
</svg>