<svg version="1.2" baseProfile="tiny-ps" xmlns="http://www.w3.org/2000/svg" viewBox="0 0 359 213" width="359" height="213">
	<title>logo-completo-svg</title>
	<style>
		tspan { white-space:pre }
		.shp0 { fill: #e92d20 } 
	</style>
	<g id="Capa_2">
		<g id="Capa_1-2">
			<path id="text10" fill="#000000" aria-label="MARSOL"  d="M39.95 52.11L21.81 9.56L4.6 9.56L4.6 12.3C10.79 12.58 11.8 14.53 11.8 22.66L11.8 51.9C11.8 60.82 10.65 62.05 3.88 62.26L3.88 65L23.97 65L23.97 62.26C17.2 62.05 16.12 60.9 16.12 51.39L16.12 18.49L16.41 18.49L37.07 65.72L38.66 65.72L59.68 18.49L60.4 18.49L60.4 51.9C60.4 60.82 59.25 62.05 52.48 62.26L52.48 65L75.81 65L75.81 62.26C69.04 62.05 67.96 60.9 67.96 51.39L67.96 23.17C67.96 14.46 68.9 12.51 75.09 12.3L75.09 9.56L58.96 9.56L40.24 52.11ZM117.21 52.69C118.5 56 118.86 57.22 118.86 59.1C118.86 61.33 117.28 62.19 112.17 62.19L112.17 65L135.64 65L135.64 62.19C130.67 62.19 129.09 60.97 124.7 50.17L108.35 9.56L105.26 9.56L86.54 56.43C84.88 60.54 83.08 61.76 78.69 62.26L78.69 65L96.18 65L96.18 62.26C92.22 62.26 90.57 61.4 90.57 58.74C90.57 56.79 91.72 52.83 95.03 44.91L114.26 44.91ZM104.9 20.07L112.89 41.31L96.47 41.31ZM182.08 23.46C182.08 14.74 174.45 9.56 161.27 9.56L138.66 9.56L138.66 12.3C144.86 12.58 145.86 13.81 145.86 20.5L145.86 54.06C145.86 60.82 144.71 62.05 137.94 62.26L137.94 65L163.36 65L163.36 62.26C154.65 62.26 153.42 60.82 153.42 53.7L153.42 38.72C157.89 38.72 159.33 39.08 161.85 42.39L179.49 65L193.38 65L193.38 62.26C189.14 61.62 186.11 60.46 183.52 57.3L167.61 38.14C177.69 36.42 182.08 31.09 182.08 23.46ZM153.42 14.17C153.42 13.45 153.86 12.94 154.65 12.94L161.27 12.94C169.12 12.94 172.72 16.11 172.72 23.82C172.72 31.81 168.04 35.12 158.54 35.12L153.42 35.12ZM196.7 64.21L198.35 64.21L200.37 60.68C204.83 64.28 208.94 65.72 214.41 65.72C226 65.72 233.99 59.02 233.99 49.38C233.99 41.82 229.96 37.86 215.7 31.45C207.5 27.78 204.69 25.04 204.69 20.5C204.69 15.68 208.43 12.51 214.26 12.51C220.38 12.51 224.85 16.33 227.15 24.18L229.82 24.18L229.02 9.85L227.37 9.85L225.5 13.09C221.75 10.14 218.22 8.84 214.05 8.84C204.62 8.84 197.92 15.18 197.92 24.1C197.92 31.52 201.59 35.48 213.54 40.74C223.26 44.98 226.14 47.79 226.14 52.69C226.14 58.38 221.68 62.05 214.62 62.05C205.98 62.05 199.65 56.79 198.28 48.08L195.62 48.08ZM271.94 8.84C255.09 8.84 241.98 21.44 241.98 37.71C241.98 53.34 255.23 65.72 271.94 65.72C288.64 65.72 301.89 53.34 301.89 37.71C301.89 21.44 288.78 8.84 271.94 8.84ZM271.94 61.76C259.26 61.76 251.34 52.54 251.34 37.93C251.34 22.52 259.26 12.8 271.94 12.8C284.61 12.8 292.53 22.52 292.53 37.93C292.53 52.54 284.54 61.76 271.94 61.76ZM355.89 50.82L353.15 50.82C351.06 59.74 347.61 61.76 336.59 61.76C326.66 61.76 323.78 60.1 323.78 52.04L323.78 21.01C323.78 13.74 324.71 12.51 330.9 12.3L330.9 9.56L309.02 9.56L309.02 12.3C315.21 12.58 316.22 13.81 316.22 20.5L316.22 54.06C316.22 60.82 315.06 62.05 308.3 62.26L308.3 65L354.81 65Z" />
			<path id="rect12" class="shp0" d="M1.5 70.78L357.5 70.78L357.5 175.78L1.5 175.78L1.5 70.78Z" />
			<path id="GROUP" fill="#ffffff" aria-label="GROUP"  d="M41.94 130.74L41.94 127.49L69.13 127.49L69.13 130.74L60.42 132.77L60.42 152.83Q55.93 154.86 48.89 156Q41.85 157.14 35.96 157.14Q20.56 157.14 12.2 148.08Q3.84 139.02 3.84 123.26Q3.84 107.51 12.02 98.1Q20.2 88.59 35.16 88.59Q41.24 88.59 47.75 90.26Q54.26 91.85 58.48 95.81L58.48 110.68L53.91 110.68L49.6 96.07Q45.72 91.94 34.99 91.94Q24.25 91.94 19.15 99.94Q14.04 107.95 14.04 122.56Q14.04 153.62 35.78 153.62Q42.64 153.62 51.18 151.51L51.18 132.77L41.94 130.74ZM139.27 152.74L139.27 156L121.49 156L99.76 126.61L94.83 126.61L94.83 150.72L103.8 152.74L103.8 156L77.05 156L77.05 152.74L85.59 150.72L85.59 95.28L77.05 93.26L77.05 90L103.54 90Q117.53 90 123.6 94.22Q129.68 98.45 129.68 107.78Q129.68 117.1 124.22 121.68Q118.76 126.17 109.88 126.17L129.68 150.81L139.27 152.74ZM104.68 93.52L94.83 93.52L94.83 123.18L104.68 123.18Q112.16 123.18 115.77 119.66Q119.47 116.14 119.47 108.39Q119.47 100.56 115.86 97.04Q112.25 93.52 104.68 93.52ZM199.55 123Q199.55 107.6 194 99.77Q188.55 91.94 178.16 91.94Q167.87 91.94 162.5 99.94Q157.13 107.95 157.13 123Q157.13 138.05 162.32 146.14Q167.6 154.15 177.9 154.15Q188.2 154.15 193.83 146.23Q199.55 138.31 199.55 123ZM146.92 123.09Q146.92 107.16 155.72 97.83Q164.52 88.42 178.34 88.42Q192.24 88.42 200.87 98.01Q209.58 107.6 209.58 123.18Q209.58 138.75 200.96 148.26Q192.33 157.67 178.16 157.67Q164 157.67 155.46 148.34Q146.92 138.93 146.92 123.09ZM265.99 93.17L265.99 90L287.9 90L287.9 93.17L279.63 95.37L279.63 130.66Q279.63 157.32 254.11 157.32Q241.08 157.32 235.01 150.37Q228.94 143.33 228.94 129.51L228.94 95.37L220.14 93.26L220.14 90L246.89 90L246.89 93.26L238.18 95.28L238.18 131.18Q238.18 142.62 242.67 147.99Q247.16 153.27 256.04 153.27Q274.79 153.27 274.79 130.22L274.79 95.37L265.99 93.17ZM301.1 93.26L301.1 90L327.59 90Q341.58 90 347.65 94.49Q353.72 98.89 353.72 108.39Q353.72 119.92 345.89 123.97Q338.94 127.49 326.88 127.49L318.88 127.49L318.88 150.72L327.85 152.74L327.85 156L301.1 156L301.1 152.74L309.64 150.72L309.64 95.28L301.1 93.26ZM318.88 93.52L318.88 123.97L328.73 123.97Q336.21 123.97 339.82 120.27Q343.52 116.58 343.52 108.74Q343.52 100.91 339.82 97.22Q336.21 93.52 328.73 93.52L318.88 93.52Z" />
			<path id="tspan28876" fill="#000000" aria-label="PROPIEDADES"  d="M91.4 187.57C91.4 184.55 88.75 182.75 84.17 182.75L76.32 182.75L76.32 183.7C78.47 183.8 78.82 184.22 78.82 186.55L78.82 198.2C78.82 200.55 78.42 200.97 76.07 201.05L76.07 202L84.9 202L84.9 201.05C81.87 201.05 81.45 200.55 81.45 198.07L81.45 193.25L83.7 193.25C89.27 193.25 91.4 191.07 91.4 187.57ZM81.45 184.35C81.45 184.1 81.6 183.93 81.87 183.93L84.17 183.93C86.9 183.93 88.15 185.07 88.15 187.88C88.15 190.8 86.52 192 83.22 192L81.45 192ZM108.57 187.57C108.57 184.55 105.92 182.75 101.35 182.75L93.5 182.75L93.5 183.7C95.65 183.8 96 184.22 96 186.55L96 198.2C96 200.55 95.6 200.97 93.25 201.05L93.25 202L102.07 202L102.07 201.05C99.05 201.05 98.62 200.55 98.62 198.07L98.62 192.88C100.17 192.88 100.67 193 101.55 194.15L107.67 202L112.5 202L112.5 201.05C111.02 200.82 109.97 200.43 109.07 199.32L103.55 192.68C107.05 192.07 108.57 190.22 108.57 187.57ZM98.62 184.35C98.62 184.1 98.77 183.93 99.05 183.93L101.35 183.93C104.07 183.93 105.32 185.03 105.32 187.7C105.32 190.47 103.7 191.63 100.4 191.63L98.62 191.63ZM123.17 182.5C117.32 182.5 112.77 186.88 112.77 192.53C112.77 197.95 117.37 202.25 123.17 202.25C128.97 202.25 133.57 197.95 133.57 192.53C133.57 186.88 129.02 182.5 123.17 182.5ZM123.17 200.88C118.77 200.88 116.02 197.68 116.02 192.6C116.02 187.25 118.77 183.88 123.17 183.88C127.57 183.88 130.32 187.25 130.32 192.6C130.32 197.68 127.55 200.88 123.17 200.88ZM151.12 187.57C151.12 184.55 148.47 182.75 143.9 182.75L136.05 182.75L136.05 183.7C138.2 183.8 138.55 184.22 138.55 186.55L138.55 198.2C138.55 200.55 138.15 200.97 135.8 201.05L135.8 202L144.62 202L144.62 201.05C141.6 201.05 141.17 200.55 141.17 198.07L141.17 193.25L143.42 193.25C149 193.25 151.12 191.07 151.12 187.57ZM141.17 184.35C141.17 184.1 141.32 183.93 141.6 183.93L143.9 183.93C146.62 183.93 147.87 185.07 147.87 187.88C147.87 190.8 146.25 192 142.95 192L141.17 192ZM158.35 187.47C158.35 184.45 158.67 183.78 160.82 183.7L160.82 182.75L153.22 182.75L153.22 183.7C155.37 183.8 155.72 184.47 155.72 187.3L155.72 197.45C155.72 200.55 155.32 200.97 152.97 201.05L152.97 202L161.07 202L161.07 201.05C158.72 200.97 158.35 200.57 158.35 197.28ZM168.72 184.25C168.72 184 168.87 183.82 169.15 183.82L172.32 183.82C175.72 183.82 177 184.5 177.4 187.15L178.27 187.15L178.05 182.75L163.6 182.75L163.6 183.7C165.75 183.8 166.1 184.22 166.1 186.55L166.1 198.2C166.1 200.55 165.7 200.97 163.35 201.05L163.35 202L178.87 202L179.25 197.07L178.3 197.07C177.65 200.03 176.4 200.93 172.87 200.93C169.72 200.93 168.72 200.25 168.72 198.07L168.72 192.43C172.47 192.45 173.45 193.38 173.45 195.38L174.32 195.38L174.32 188.55L173.45 188.55C173.45 190.57 172.32 191.43 168.72 191.43ZM191.1 202C196.92 202 201 198.18 201 192.7C201 186.95 196.62 182.75 190.6 182.75L181.82 182.75L181.82 183.7C183.97 183.8 184.32 184.22 184.32 186.55L184.32 198.2C184.32 200.57 183.87 200.97 181.32 201.05L181.32 202ZM190.55 183.97C195 183.97 197.75 187.22 197.75 192.75C197.75 198 195.2 200.78 190.67 200.78C188.15 200.78 186.95 199.85 186.95 197.93L186.95 184.4C186.95 184.15 187.1 183.97 187.37 183.97ZM215 197.72C215.45 198.88 215.57 199.3 215.57 199.95C215.57 200.72 215.02 201.03 213.25 201.03L213.25 202L221.4 202L221.4 201.03C219.67 201.03 219.12 200.6 217.6 196.85L211.92 182.75L210.85 182.75L204.35 199.03C203.77 200.45 203.15 200.88 201.62 201.05L201.62 202L207.7 202L207.7 201.05C206.32 201.05 205.75 200.75 205.75 199.82C205.75 199.15 206.15 197.78 207.3 195.03L213.97 195.03ZM210.72 186.4L213.5 193.78L207.8 193.78ZM231.8 202C237.62 202 241.7 198.18 241.7 192.7C241.7 186.95 237.32 182.75 231.3 182.75L222.52 182.75L222.52 183.7C224.67 183.8 225.02 184.22 225.02 186.55L225.02 198.2C225.02 200.57 224.57 200.97 222.02 201.05L222.02 202ZM231.25 183.97C235.7 183.97 238.45 187.22 238.45 192.75C238.45 198 235.9 200.78 231.37 200.78C228.85 200.78 227.65 199.85 227.65 197.93L227.65 184.4C227.65 184.15 227.8 183.97 228.07 183.97ZM249.35 184.25C249.35 184 249.5 183.82 249.77 183.82L252.95 183.82C256.35 183.82 257.62 184.5 258.02 187.15L258.9 187.15L258.67 182.75L244.22 182.75L244.22 183.7C246.37 183.8 246.72 184.22 246.72 186.55L246.72 198.2C246.72 200.55 246.32 200.97 243.97 201.05L243.97 202L259.5 202L259.87 197.07L258.92 197.07C258.27 200.03 257.02 200.93 253.5 200.93C250.35 200.93 249.35 200.25 249.35 198.07L249.35 192.43C253.1 192.45 254.07 193.38 254.07 195.38L254.95 195.38L254.95 188.55L254.07 188.55C254.07 190.57 252.95 191.43 249.35 191.43ZM262.82 201.72L263.4 201.72L264.1 200.5C265.65 201.75 267.07 202.25 268.97 202.25C273 202.25 275.77 199.93 275.77 196.57C275.77 193.95 274.37 192.57 269.42 190.35C266.57 189.07 265.6 188.13 265.6 186.55C265.6 184.88 266.9 183.78 268.92 183.78C271.05 183.78 272.6 185.1 273.4 187.82L274.32 187.82L274.05 182.85L273.47 182.85L272.82 183.97C271.52 182.95 270.3 182.5 268.85 182.5C265.57 182.5 263.25 184.7 263.25 187.8C263.25 190.38 264.52 191.75 268.67 193.57C272.05 195.05 273.05 196.03 273.05 197.72C273.05 199.7 271.5 200.97 269.05 200.97C266.05 200.97 263.85 199.15 263.37 196.13L262.45 196.13Z" />
		</g>
	</g>
</svg>